<svg width="114" height="27" viewBox="0 0 114 27" fill="none" xmlns="http://www.w3.org/2000/svg">
<path d="M26.0015 26L17.3343 26L17.3343 17.3334L26.0015 17.3334L26.0015 26Z" fill="#000E3F"/>
<path fill-rule="evenodd" clip-rule="evenodd" d="M17.7826 25.5498L25.5532 25.5498L25.5532 17.7836L17.7826 17.7836L17.7826 25.5498ZM26.0015 26L26.0015 17.3334L17.3343 17.3334L17.3343 26L26.0015 26Z" fill="#000E3F"/>
<path d="M26.0015 17.3296L17.3343 17.3296L17.3343 8.663L26.0015 8.663L26.0015 17.3296Z" fill="#000E3F"/>
<path fill-rule="evenodd" clip-rule="evenodd" d="M17.7826 16.8794L25.5532 16.8794L25.5532 9.11321L17.7826 9.11321L17.7826 16.8794ZM26.0015 17.3296L26.0015 8.663L17.3343 8.663L17.3343 17.3296L26.0015 17.3296Z" fill="#000E3F"/>
<path d="M17.3348 8.6665L8.66761 8.6665L8.66761 -8.32217e-05L17.3348 -8.39826e-05L17.3348 8.6665Z" fill="#000E3F"/>
<path fill-rule="evenodd" clip-rule="evenodd" d="M9.11592 8.21629L16.8865 8.21629L16.8865 0.450128L9.11592 0.450129L9.11592 8.21629ZM17.3348 8.6665L17.3348 -8.39826e-05L8.66761 -8.32217e-05L8.66761 8.6665L17.3348 8.6665Z" fill="#000E3F"/>
<path d="M17.3348 26L8.66761 26L8.66761 17.3334L17.3348 17.3334L17.3348 26Z" fill="#000E3F"/>
<path fill-rule="evenodd" clip-rule="evenodd" d="M9.11592 25.5498L16.8865 25.5498L16.8865 17.7836L9.11592 17.7836L9.11592 25.5498ZM17.3348 26L17.3348 17.3334L8.66761 17.3334L8.66761 26L17.3348 26Z" fill="#000E3F"/>
<path d="M8.66724 17.3296L1.13167e-05 17.3296L1.05622e-05 8.663L8.66724 8.663L8.66724 17.3296Z" fill="#000E3F"/>
<path fill-rule="evenodd" clip-rule="evenodd" d="M0.448316 16.8794L8.21893 16.8794L8.21893 9.11321L0.448315 9.11321L0.448316 16.8794ZM8.66724 17.3296L8.66724 8.663L1.05622e-05 8.663L1.13167e-05 17.3296L8.66724 17.3296Z" fill="#000E3F"/>
<path d="M8.66724 8.6665L1.13167e-05 8.6665L1.05622e-05 -8.32217e-05L8.66724 -8.39826e-05L8.66724 8.6665Z" fill="#000E3F"/>
<path fill-rule="evenodd" clip-rule="evenodd" d="M0.448316 8.21629L8.21893 8.21629L8.21893 0.450128L0.448315 0.450129L0.448316 8.21629ZM8.66724 8.6665L8.66724 -8.39826e-05L1.05622e-05 -8.32217e-05L1.13167e-05 8.6665L8.66724 8.6665Z" fill="#000E3F"/>
<path d="M105.932 21.8716C104.708 21.8716 103.651 21.6173 102.761 21.1088C101.877 20.5949 101.196 19.8692 100.719 18.9316C100.242 17.9886 100.004 16.8788 100.004 15.6021C100.004 14.3466 100.242 13.2448 100.719 12.2965C101.201 11.343 101.874 10.6013 102.738 10.0716C103.601 9.53656 104.616 9.26904 105.781 9.26904C106.533 9.26904 107.243 9.39088 107.911 9.63456C108.583 9.87295 109.177 10.2438 109.691 10.747C110.21 11.2503 110.618 11.8913 110.914 12.67C111.211 13.4434 111.359 14.3652 111.359 15.4352V16.3173H101.355V14.3784H108.602C108.597 13.8275 108.478 13.3375 108.244 12.9084C108.011 12.474 107.686 12.1323 107.267 11.8833C106.854 11.6343 106.372 11.5099 105.821 11.5099C105.233 11.5099 104.716 11.6529 104.271 11.9389C103.826 12.2197 103.479 12.5905 103.23 13.0514C102.986 13.507 102.862 14.0076 102.857 14.5532V16.2458C102.857 16.9556 102.986 17.5648 103.246 18.0734C103.506 18.5766 103.869 18.9633 104.335 19.2335C104.801 19.4984 105.347 19.6308 105.972 19.6308C106.39 19.6308 106.769 19.5725 107.108 19.456C107.447 19.3342 107.741 19.1567 107.99 18.9236C108.239 18.6905 108.427 18.4018 108.554 18.0575L111.24 18.3594C111.071 19.0693 110.748 19.6891 110.271 20.2188C109.799 20.7433 109.195 21.1512 108.459 21.4425C107.723 21.7286 106.88 21.8716 105.932 21.8716Z" fill="#000E3F"/>
<path d="M98.2521 9.4276V11.6525H91.2354V9.4276H98.2521ZM92.9677 6.50342H95.8443V17.9618C95.8443 18.3485 95.9026 18.6451 96.0191 18.8517C96.141 19.053 96.2999 19.1908 96.4959 19.2649C96.692 19.3391 96.9092 19.3762 97.1475 19.3762C97.3277 19.3762 97.4919 19.3629 97.6402 19.3364C97.7939 19.31 97.9104 19.2861 97.9899 19.2649L98.4746 21.5137C98.321 21.5667 98.1011 21.6249 97.8151 21.6885C97.5343 21.7521 97.1899 21.7891 96.782 21.7997C96.0615 21.8209 95.4126 21.7123 94.8351 21.474C94.2577 21.2303 93.7994 20.8542 93.4604 20.3456C93.1266 19.837 92.9624 19.2014 92.9677 18.4385V6.50342Z" fill="#000E3F"/>
<path d="M86.3221 21.6302V9.42492H89.1987V21.6302H86.3221ZM87.7684 7.69266C87.3128 7.69266 86.9207 7.54168 86.5923 7.23973C86.2638 6.93248 86.0996 6.56431 86.0996 6.13521C86.0996 5.70083 86.2638 5.33265 86.5923 5.0307C86.9207 4.72345 87.3128 4.56982 87.7684 4.56982C88.2293 4.56982 88.6213 4.72345 88.9445 5.0307C89.2729 5.33265 89.4371 5.70083 89.4371 6.13521C89.4371 6.56431 89.2729 6.93248 88.9445 7.23973C88.6213 7.54168 88.2293 7.69266 87.7684 7.69266Z" fill="#000E3F"/>
<path d="M75.5622 14.4817V21.6332H72.6855V9.42797H75.435V11.5019H75.5781C75.8589 10.8185 76.3065 10.2756 76.921 9.87295C77.5409 9.47035 78.3064 9.26904 79.2176 9.26904C80.0599 9.26904 80.7936 9.44916 81.4188 9.80938C82.0492 10.1696 82.5366 10.6914 82.8809 11.3748C83.2306 12.0581 83.4027 12.8872 83.3974 13.8619V21.6332H80.5208V14.3069C80.5208 13.4911 80.3089 12.8528 79.8851 12.3919C79.4666 11.931 78.8865 11.7006 78.1448 11.7006C77.6415 11.7006 77.1939 11.8118 76.8018 12.0343C76.4151 12.2515 76.1105 12.5667 75.888 12.9799C75.6708 13.3931 75.5622 13.8937 75.5622 14.4817Z" fill="#000E3F"/>
<path d="M64.0081 26.4645C62.9751 26.4645 62.0877 26.3241 61.346 26.0434C60.6044 25.7679 60.0084 25.3971 59.5581 24.9309C59.1078 24.4647 58.7952 23.9482 58.6204 23.3814L61.2109 22.7536C61.3275 22.992 61.497 23.2278 61.7195 23.4609C61.942 23.6992 62.2413 23.8952 62.6175 24.0489C62.9989 24.2078 63.4783 24.2873 64.0558 24.2873C64.8716 24.2873 65.5471 24.0886 66.0821 23.6913C66.6172 23.2993 66.8847 22.653 66.8847 21.7524V19.4401H66.7417C66.5934 19.7368 66.3762 20.0414 66.0901 20.3539C65.8093 20.6665 65.4358 20.9287 64.9696 21.1406C64.5087 21.3525 63.9286 21.4584 63.2294 21.4584C62.2917 21.4584 61.4414 21.2386 60.6785 20.7989C59.921 20.3539 59.317 19.6917 58.8667 18.8124C58.4217 17.9277 58.1992 16.8205 58.1992 15.4909C58.1992 14.1506 58.4217 13.0196 58.8667 12.0979C59.317 11.1708 59.9236 10.4689 60.6865 9.99214C61.4493 9.51008 62.2996 9.26904 63.2373 9.26904C63.9525 9.26904 64.5405 9.39088 65.0014 9.63456C65.4676 9.87295 65.8385 10.1617 66.1139 10.5007C66.3894 10.8344 66.5987 11.1496 66.7417 11.4463H66.9006V9.42797H69.7375V21.8319C69.7375 22.8755 69.4885 23.739 68.9906 24.4223C68.4926 25.1057 67.8118 25.6169 66.9483 25.9559C66.0848 26.295 65.1047 26.4645 64.0081 26.4645ZM64.032 19.2017C64.6412 19.2017 65.1604 19.0534 65.5895 18.7567C66.0186 18.4601 66.3444 18.0336 66.5669 17.4774C66.7894 16.9212 66.9006 16.2537 66.9006 15.475C66.9006 14.7069 66.7894 14.0341 66.5669 13.4567C66.3497 12.8792 66.0265 12.4316 65.5974 12.1138C65.1736 11.7906 64.6518 11.629 64.032 11.629C63.3909 11.629 62.8559 11.7959 62.4268 12.1297C61.9976 12.4634 61.6745 12.9216 61.4573 13.5043C61.2401 14.0818 61.1315 14.7386 61.1315 15.475C61.1315 16.2219 61.2401 16.8762 61.4573 17.4377C61.6798 17.9939 62.0056 18.4283 62.4347 18.7408C62.8691 19.0481 63.4015 19.2017 64.032 19.2017Z" fill="#000E3F"/>
<path d="M52.8643 21.6302V9.42492H55.7409V21.6302H52.8643ZM54.3106 7.69266C53.855 7.69266 53.4629 7.54168 53.1345 7.23973C52.806 6.93248 52.6418 6.56431 52.6418 6.13521C52.6418 5.70083 52.806 5.33265 53.1345 5.0307C53.4629 4.72345 53.855 4.56982 54.3106 4.56982C54.7714 4.56982 55.1635 4.72345 55.4866 5.0307C55.8151 5.33265 55.9793 5.70083 55.9793 6.13521C55.9793 6.56431 55.8151 6.93248 55.4866 7.23973C55.1635 7.54168 54.7714 7.69266 54.3106 7.69266Z" fill="#000E3F"/>
<path d="M46.2387 10.5555C46.1062 10.1264 45.9235 9.74235 45.6904 9.40331C45.4626 9.05898 45.1871 8.76497 44.8639 8.52129C44.5461 8.27761 44.1805 8.09484 43.7673 7.973C43.3541 7.84587 42.9038 7.7823 42.4164 7.7823C41.5423 7.7823 40.7635 8.00214 40.0801 8.44183C39.3967 8.88151 38.859 9.5278 38.467 10.3807C38.0803 11.2283 37.8869 12.2613 37.8869 13.4797C37.8869 14.7087 38.0803 15.7496 38.467 16.6025C38.8537 17.4554 39.3914 18.1043 40.0801 18.5493C40.7688 18.989 41.5688 19.2089 42.48 19.2089C43.3064 19.2089 44.0216 19.0499 44.6255 18.7321C45.2348 18.4142 45.7036 17.964 46.0321 17.3812C46.3605 16.7932 46.5247 16.1046 46.5247 15.3152L47.1923 15.4185H42.774V13.1142H49.3775V15.0689C49.3775 16.4621 49.0809 17.6673 48.4875 18.6844C47.8942 19.7015 47.0784 20.4855 46.04 21.0365C45.0017 21.5821 43.8097 21.8549 42.4641 21.8549C40.9648 21.8549 39.6484 21.5185 38.5147 20.8458C37.3863 20.1677 36.5042 19.2062 35.8685 17.9613C35.2381 16.7111 34.9229 15.2278 34.9229 13.5115C34.9229 12.1977 35.1083 11.0243 35.4791 9.99132C35.8552 8.95833 36.3797 8.0816 37.0525 7.36115C37.7253 6.6354 38.5147 6.08447 39.4206 5.70835C40.3265 5.32694 41.3118 5.13623 42.3767 5.13623C43.2773 5.13623 44.117 5.26867 44.8957 5.53354C45.6745 5.79311 46.3658 6.16393 46.9697 6.646C47.579 7.12806 48.0796 7.70019 48.4716 8.36236C48.8637 9.02454 49.1206 9.75559 49.2424 10.5555H46.2387Z" fill="#000E3F"/>
</svg>
